<svg width="24" height="24" viewBox="0 0 24 24" fill="none" xmlns="http://www.w3.org/2000/svg">
    <path d="M9.53106 8.47076C9.23816 8.17787 8.76329 8.17787 8.4704 8.47076C8.1775 8.76366 8.1775 9.23853 8.4704 9.53142L9.53106 8.47076ZM14.4705 15.5315C14.7634 15.8244 15.2383 15.8244 15.5312 15.5315C15.8241 15.2386 15.8241 14.7638 15.5312 14.4709L14.4705 15.5315ZM8.4704 14.471C8.1775 14.7639 8.1775 15.2388 8.4704 15.5317C8.76329 15.8245 9.23816 15.8245 9.53106 15.5317L8.4704 14.471ZM15.5312 9.53154C15.8241 9.23865 15.8241 8.76378 15.5312 8.47088C15.2383 8.17799 14.7634 8.17799 14.4705 8.47088L15.5312 9.53154ZM12.0008 20.2516C7.4443 20.2516 3.75049 16.5578 3.75049 12.0012H2.25049C2.25049 17.3862 6.61587 21.7516 12.0008 21.7516V20.2516ZM3.75049 12.0012C3.75049 7.44466 7.4443 3.75085 12.0008 3.75085V2.25085C6.61587 2.25085 2.25049 6.61624 2.25049 12.0012H3.75049ZM12.0008 3.75085C16.5574 3.75085 20.2512 7.44466 20.2512 12.0012H21.7512C21.7512 6.61624 17.3858 2.25085 12.0008 2.25085V3.75085ZM20.2512 12.0012C20.2512 16.5578 16.5574 20.2516 12.0008 20.2516V21.7516C17.3858 21.7516 21.7512 17.3862 21.7512 12.0012H20.2512ZM8.4704 9.53142L14.4705 15.5315L15.5312 14.4709L9.53106 8.47076L8.4704 9.53142ZM9.53106 15.5317L15.5312 9.53154L14.4705 8.47088L8.4704 14.471L9.53106 15.5317Z" fill="#94FFDF"/>
</svg>
