<svg width="20" height="20" viewBox="0 0 20 20" fill="none" xmlns="http://www.w3.org/2000/svg">
    <path fill-rule="evenodd" clip-rule="evenodd" d="M13.0569 5.83325C13.0569 5.48807 13.3367 5.20825 13.6819 5.20825H18.3337C18.6788 5.20825 18.9587 5.48807 18.9587 5.83325V10.4548C18.9587 10.8 18.6788 11.0798 18.3337 11.0798C17.9885 11.0798 17.7087 10.8 17.7087 10.4548V7.33563L12.5955 12.4177C12.2047 12.8061 11.8678 13.1409 11.5619 13.373C11.234 13.6218 10.8697 13.81 10.4212 13.8099C9.97267 13.8098 9.60838 13.6216 9.28052 13.3727C8.97468 13.1406 8.63793 12.8057 8.24723 12.4172L8.01868 12.1899C7.59022 11.7639 7.31242 11.4895 7.08112 11.314C6.86426 11.1494 6.76288 11.131 6.69574 11.1311C6.6286 11.1311 6.52723 11.1495 6.31049 11.3143C6.07931 11.49 5.80171 11.7645 5.37356 12.1909L2.10801 15.4428C1.86342 15.6863 1.46769 15.6855 1.22412 15.4409C0.98056 15.1963 0.981389 14.8006 1.22598 14.5571L4.5206 11.2762C4.91138 10.887 5.24817 10.5516 5.55409 10.3191C5.88201 10.0698 6.24645 9.88122 6.69528 9.88106C7.1441 9.88089 7.50869 10.0692 7.83678 10.3182C8.14287 10.5505 8.47991 10.8857 8.87096 11.2746L9.09952 11.5019C9.52761 11.9276 9.80514 12.2017 10.0362 12.3771C10.2529 12.5415 10.3542 12.5599 10.4213 12.5599C10.4884 12.5599 10.5897 12.5415 10.8064 12.3771C11.0376 12.2018 11.3152 11.9278 11.7434 11.5022L16.8182 6.45825H13.6819C13.3367 6.45825 13.0569 6.17843 13.0569 5.83325Z" fill="#94FFDF"/>
</svg>
