<svg width="20" height="20" viewBox="0 0 20 20" fill="none" xmlns="http://www.w3.org/2000/svg">
    <path fill-rule="evenodd" clip-rule="evenodd" d="M1.22388 5.39224C1.46745 5.14765 1.86317 5.14682 2.10776 5.39038L5.37332 8.64228C5.80147 9.06864 6.07906 9.34321 6.31024 9.51892C6.52698 9.68365 6.62835 9.70209 6.69549 9.70211C6.76263 9.70214 6.86402 9.68377 7.08087 9.5192C7.31218 9.34366 7.58997 9.06929 8.01844 8.64325L8.24697 8.416C8.63768 8.02745 8.97443 7.69256 9.28028 7.46042C9.60813 7.21159 9.97242 7.02332 10.4209 7.02327C10.8694 7.02322 11.2338 7.2114 11.5617 7.46016C11.8676 7.69222 12.2044 8.02705 12.5952 8.41551L17.7084 13.4975V10.3784C17.7084 10.0332 17.9882 9.75339 18.3334 9.75339C18.6786 9.75339 18.9584 10.0332 18.9584 10.3784V14.9999C18.9584 15.3451 18.6786 15.6249 18.3334 15.6249H13.6816C13.3364 15.6249 13.0566 15.3451 13.0566 14.9999C13.0566 14.6547 13.3364 14.3749 13.6816 14.3749H16.818L11.7431 9.33099C11.3149 8.90541 11.0373 8.63137 10.8062 8.45602C10.5895 8.29163 10.4882 8.27326 10.4211 8.27327C10.354 8.27328 10.2526 8.29167 10.036 8.45611C9.8049 8.63151 9.52736 8.90561 9.09927 9.33129L8.87072 9.55856C8.47967 9.94745 8.14263 10.2826 7.83654 10.5149C7.50844 10.7639 7.14386 10.9523 6.69503 10.9521C6.24621 10.9519 5.88176 10.7633 5.55385 10.5141C5.24793 10.2816 4.91113 9.94614 4.52036 9.55696C4.5107 9.54735 4.50101 9.5377 4.49129 9.52801L1.22573 6.27612C0.981145 6.03255 0.980315 5.63683 1.22388 5.39224Z" fill="#F17E7E"/>
</svg>
