<svg width="24" height="24" viewBox="0 0 24 24" fill="none" xmlns="http://www.w3.org/2000/svg">
    <path d="M3.00049 17.0006L7.76865 11.4377C8.19243 10.9433 8.40441 10.6961 8.65589 10.607C8.87657 10.5288 9.11759 10.5305 9.33716 10.6118C9.58738 10.7044 9.79582 10.9544 10.2127 11.4547L12.8792 14.6545C13.2683 15.1214 13.4629 15.3548 13.6995 15.4486C13.9073 15.5311 14.1366 15.5415 14.351 15.4782C14.5951 15.4061 14.81 15.1913 15.2397 14.7616L15.7368 14.2645C16.1743 13.827 16.3931 13.6083 16.6407 13.5368C16.8582 13.474 17.0907 13.4869 17.2999 13.5733C17.5381 13.6717 17.7313 13.9133 18.1178 14.3964L21.0012 18.0007M21.0012 6.20008V17.8005C21.0012 18.9207 21.0014 19.4809 20.7834 19.9087C20.5917 20.285 20.2853 20.5909 19.9089 20.7827C19.4811 21.0007 18.9214 21.0007 17.8013 21.0007H6.20081C5.08066 21.0007 4.52017 21.0007 4.09233 20.7827C3.71599 20.5909 3.41024 20.285 3.21848 19.9087C3.00049 19.4809 3.00049 18.9207 3.00049 17.8005V6.20008C3.00049 5.07993 3.00049 4.51992 3.21848 4.09208C3.41024 3.71575 3.71599 3.40975 4.09233 3.218C4.52017 3 5.08066 3 6.20081 3H17.8013C18.9214 3 19.4811 3 19.9089 3.218C20.2853 3.40975 20.5917 3.71575 20.7834 4.09208C21.0014 4.51992 21.0012 5.07993 21.0012 6.20008ZM15.001 9.00024C14.4487 9.00024 14.0009 8.5525 14.0009 8.0002C14.0009 7.44789 14.4487 7.00016 15.001 7.00016C15.5533 7.00016 16.001 7.44789 16.001 8.0002C16.001 8.5525 15.5533 9.00024 15.001 9.00024Z" stroke="#434C4B" stroke-width="2.00008" stroke-linecap="round" stroke-linejoin="round"/>
</svg>
