<svg width="16" height="16" viewBox="0 0 16 16" fill="none" xmlns="http://www.w3.org/2000/svg">
    <g clip-path="url(#clip0_417_962)">
        <ellipse cx="8.00016" cy="7.99992" rx="6.66667" ry="6.66667" stroke="#FFCB11"/>
        <path d="M7.24101 6.24191C7.57878 5.63597 7.74767 5.33301 8.00016 5.33301C8.25266 5.33301 8.42155 5.63597 8.75932 6.24191L8.84671 6.39867C8.94269 6.57086 8.99068 6.65695 9.06551 6.71376C9.14034 6.77056 9.23354 6.79165 9.41993 6.83382L9.58962 6.87222C10.2455 7.02062 10.5735 7.09483 10.6515 7.34574C10.7295 7.59665 10.506 7.85809 10.0588 8.38099L9.94312 8.51627C9.81605 8.66486 9.75252 8.73915 9.72393 8.83107C9.69535 8.92298 9.70496 9.0221 9.72417 9.22036L9.74166 9.40085C9.80926 10.0985 9.84306 10.4473 9.63879 10.6024C9.43452 10.7575 9.12745 10.6161 8.51332 10.3333L8.35443 10.2602C8.17992 10.1798 8.09266 10.1396 8.00016 10.1396C7.90767 10.1396 7.82041 10.1798 7.64589 10.2602L7.48701 10.3333C6.87288 10.6161 6.56581 10.7575 6.36154 10.6024C6.15726 10.4473 6.19106 10.0985 6.25867 9.40085L6.27616 9.22036C6.29537 9.0221 6.30498 8.92298 6.27639 8.83107C6.24781 8.73915 6.18428 8.66486 6.05721 8.51627L5.94152 8.38099C5.49436 7.85809 5.27078 7.59665 5.34881 7.34574C5.42683 7.09483 5.75479 7.02062 6.41071 6.87222L6.5804 6.83382C6.76679 6.79165 6.85998 6.77056 6.93481 6.71376C7.00964 6.65695 7.05764 6.57086 7.15362 6.39867L7.24101 6.24191Z" stroke="#FFCB11"/>
    </g>
    <defs>
        <clipPath id="clip0_417_962">
            <rect width="16" height="16" fill="white"/>
        </clipPath>
    </defs>
</svg>
