<svg width="16" height="16" viewBox="0 0 16 16" fill="none" xmlns="http://www.w3.org/2000/svg">
    <path d="M8.05276 1.5C4.8571 1.5 2.23001 3.942 1.97386 7.05556H1.33351C1.13092 7.05556 0.948356 7.1778 0.871196 7.36512C0.794037 7.55244 0.837536 7.76781 0.981349 7.91049L2.10122 9.02161C2.29616 9.21502 2.61061 9.21502 2.80555 9.0216L3.92542 7.91049C4.06923 7.76781 4.11273 7.55244 4.03557 7.36512C3.95841 7.1778 3.77585 7.05556 3.57326 7.05556H2.97803C3.23117 4.50111 5.40336 2.5 8.05276 2.5C9.89911 2.5 11.5153 3.4723 12.4106 4.92853C12.5552 5.16377 12.8631 5.23723 13.0984 5.09261C13.3336 4.94799 13.4071 4.64005 13.2624 4.40481C12.1915 2.66285 10.2584 1.5 8.05276 1.5Z" fill="#8684FF"/>
    <path d="M13.8943 6.97772C13.6995 6.7852 13.3861 6.7852 13.1913 6.97772L12.0671 8.08883C11.9229 8.23137 11.8791 8.44688 11.9561 8.63444C12.0332 8.82199 12.2159 8.94444 12.4186 8.94444H13.018C12.7639 11.4975 10.5841 13.5 7.922 13.5C6.067 13.5 4.44407 12.5269 3.54547 11.0707C3.40045 10.8358 3.09238 10.7628 2.85738 10.9078C2.62239 11.0529 2.54945 11.3609 2.69447 11.5959C3.76954 13.338 5.70953 14.5 7.922 14.5C11.1273 14.5 13.7651 12.0595 14.0222 8.94444H14.6669C14.8697 8.94444 15.0524 8.82199 15.1294 8.63444C15.2065 8.44688 15.1626 8.23137 15.0184 8.08883L13.8943 6.97772Z" fill="#8684FF"/>
</svg>
