<svg width="16" height="16" viewBox="0 0 16 16" fill="none" xmlns="http://www.w3.org/2000/svg">
    <g clip-path="url(#clip0_436_1879)">
        <path d="M1.3335 10.6665C1.3335 8.78089 1.3335 7.83808 1.91928 7.25229C2.50507 6.6665 3.44788 6.6665 5.3335 6.6665H10.6668C12.5524 6.6665 13.4953 6.6665 14.081 7.25229C14.6668 7.83808 14.6668 8.78089 14.6668 10.6665C14.6668 12.5521 14.6668 13.4949 14.081 14.0807C13.4953 14.6665 12.5524 14.6665 10.6668 14.6665H5.3335C3.44788 14.6665 2.50507 14.6665 1.91928 14.0807C1.3335 13.4949 1.3335 12.5521 1.3335 10.6665Z" stroke="#FF6666" stroke-width="1.50006"/>
        <path d="M4 6.66683V5.3335C4 3.12436 5.79086 1.3335 8 1.3335C10.2091 1.3335 12 3.12436 12 5.3335V6.66683" stroke="#FF6666" stroke-width="1.50006" stroke-linecap="round"/>
    </g>
    <defs>
        <clipPath id="clip0_436_1879">
            <rect width="16" height="16" fill="white"/>
        </clipPath>
    </defs>
</svg>
