<svg width="16" height="16" viewBox="0 0 16 16" fill="none" xmlns="http://www.w3.org/2000/svg">
    <g clip-path="url(#clip0_417_2119)">
        <path d="M11.3335 6.00098C12.7835 6.00905 13.5688 6.07335 14.081 6.5856C14.6668 7.17139 14.6668 8.1142 14.6668 9.99982V10.6665C14.6668 12.5521 14.6668 13.4949 14.081 14.0807C13.4953 14.6665 12.5524 14.6665 10.6668 14.6665H5.3335C3.44788 14.6665 2.50507 14.6665 1.91928 14.0807C1.3335 13.4949 1.3335 12.5521 1.3335 10.6665L1.3335 9.99982C1.3335 8.1142 1.3335 7.17139 1.91928 6.5856C2.43154 6.07335 3.21681 6.00905 4.66683 6.00098" stroke="#F8A2FF" stroke-width="1.50006" stroke-linecap="round"/>
        <path d="M8 10.0002L8 1.33358M8 1.33358L10 3.66691M8 1.33358L6 3.66691" stroke="#F8A2FF" stroke-width="1.50006" stroke-linecap="round" stroke-linejoin="round"/>
    </g>
    <defs>
        <clipPath id="clip0_417_2119">
            <rect width="16" height="16" rx="5.0002" fill="white"/>
        </clipPath>
    </defs>
</svg>
