<svg width="24" height="24" viewBox="0 0 24 24" fill="none" xmlns="http://www.w3.org/2000/svg">
    <path d="M17.2177 19.3327C15.9359 17.9012 14.0736 17.0003 12.0008 17.0003C9.92811 17.0003 8.06561 17.9012 6.78384 19.3327M12.0008 21.0005C7.03008 21.0005 3.00049 16.9709 3.00049 12.0001C3.00049 7.02935 7.03008 2.99976 12.0008 2.99976C16.9716 2.99976 21.0012 7.02935 21.0012 12.0001C21.0012 16.9709 16.9716 21.0005 12.0008 21.0005ZM12.0008 14.0002C10.3439 14.0002 9.00073 12.657 9.00073 11.0001C9.00073 9.34315 10.3439 7.99995 12.0008 7.99995C13.6578 7.99995 15.001 9.34315 15.001 11.0001C15.001 12.657 13.6578 14.0002 12.0008 14.0002Z" stroke="#94FFDF" stroke-width="1.5" stroke-linecap="round" stroke-linejoin="round"/>
</svg>
