<svg width="33" height="32" viewBox="0 0 33 32" fill="none" xmlns="http://www.w3.org/2000/svg">
    <path d="M6.66658 22.0001V22.2501C6.66658 22.7142 6.85096 23.1593 7.17915 23.4875C7.50733 23.8157 7.95245 24.0001 8.41658 24.0001H14.9166C15.3807 24.0001 15.8258 23.8157 16.154 23.4875C16.4822 23.1593 16.6666 22.7142 16.6666 22.2501V22.0001C16.6867 21.1373 16.4196 20.2923 15.9074 19.5977C15.3952 18.9031 14.6668 18.3983 13.8366 18.1626C14.3263 17.7234 14.6712 17.1459 14.8257 16.5064C14.9802 15.867 14.937 15.1958 14.7018 14.5814C14.4667 13.967 14.0506 13.4385 13.5087 13.0656C12.9667 12.6928 12.3244 12.4932 11.6666 12.4932C11.0088 12.4932 10.3664 12.6928 9.82447 13.0656C9.28252 13.4385 8.86647 13.967 8.63132 14.5814C8.39617 15.1958 8.35299 15.867 8.50748 16.5064C8.66198 17.1459 9.00687 17.7234 9.49658 18.1626C8.66638 18.3983 7.93798 18.9031 7.42576 19.5977C6.91354 20.2923 6.6465 21.1373 6.66658 22.0001ZM11.6666 13.5001C12.1116 13.5001 12.5466 13.632 12.9166 13.8793C13.2866 14.1265 13.575 14.4779 13.7453 14.889C13.9156 15.3002 13.9602 15.7526 13.8733 16.189C13.7865 16.6255 13.5722 17.0264 13.2576 17.3411C12.9429 17.6557 12.542 17.87 12.1055 17.9569C11.6691 18.0437 11.2167 17.9991 10.8055 17.8288C10.3944 17.6585 10.043 17.3701 9.79578 17.0001C9.54854 16.6301 9.41658 16.1951 9.41658 15.7501C9.41658 15.1533 9.65364 14.5811 10.0756 14.1591C10.4975 13.7371 11.0698 13.5001 11.6666 13.5001ZM10.6666 19.0001H12.6666C13.063 18.9912 13.4571 19.0627 13.8251 19.2104C14.193 19.358 14.5273 19.5786 14.8077 19.859C15.088 20.1394 15.3087 20.4736 15.4563 20.8416C15.6039 21.2096 15.6755 21.6037 15.6666 22.0001V22.2501C15.6666 22.449 15.5876 22.6398 15.4469 22.7804C15.3063 22.9211 15.1155 23.0001 14.9166 23.0001H8.41658C8.21767 23.0001 8.0269 22.9211 7.88625 22.7804C7.7456 22.6398 7.66658 22.449 7.66658 22.2501V22.0001C7.6577 21.6037 7.72923 21.2096 7.87685 20.8416C8.02447 20.4736 8.24512 20.1394 8.52549 19.859C8.80585 19.5786 9.14012 19.358 9.50811 19.2104C9.8761 19.0627 10.2702 18.9912 10.6666 19.0001Z" fill="#94FFDF"/>
    <path d="M27.1665 18.5C27.0339 18.5 26.9067 18.5527 26.813 18.6464C26.7192 18.7402 26.6665 18.8674 26.6665 19V25.25C26.6665 25.4489 26.5875 25.6397 26.4468 25.7803C26.3062 25.921 26.1154 26 25.9165 26H5.4165C5.21759 26 5.02683 25.921 4.88617 25.7803C4.74552 25.6397 4.6665 25.4489 4.6665 25.25V10.75C4.6665 10.5511 4.74552 10.3603 4.88617 10.2197C5.02683 10.079 5.21759 10 5.4165 10H16.4165C16.5491 10 16.6763 9.94732 16.7701 9.85355C16.8638 9.75979 16.9165 9.63261 16.9165 9.5C16.9165 9.36739 16.8638 9.24021 16.7701 9.14645C16.6763 9.05268 16.5491 9 16.4165 9H5.4165C4.95238 9 4.50726 9.18437 4.17907 9.51256C3.85088 9.84075 3.6665 10.2859 3.6665 10.75V25.25C3.6665 25.7141 3.85088 26.1592 4.17907 26.4874C4.50726 26.8156 4.95238 27 5.4165 27H25.9165C26.3806 27 26.8258 26.8156 27.1539 26.4874C27.4821 26.1592 27.6665 25.7141 27.6665 25.25V19C27.6665 18.8674 27.6138 18.7402 27.5201 18.6464C27.4263 18.5527 27.2991 18.5 27.1665 18.5Z" fill="#94FFDF"/>
    <path d="M26.729 9.14741L23.584 12.2924L21.604 10.3124C21.5102 10.2186 21.383 10.1659 21.2503 10.1659C21.1176 10.1659 20.9903 10.2186 20.8965 10.3124C20.8027 10.4062 20.75 10.5335 20.75 10.6662C20.75 10.7988 20.8027 10.9261 20.8965 11.0199L23.229 13.3524C23.2755 13.3992 23.3309 13.4363 23.3918 13.4616C23.4527 13.487 23.5181 13.5 23.584 13.4999C23.7164 13.4994 23.8432 13.4463 23.9365 13.3524L27.4365 9.85241C27.5225 9.75715 27.5686 9.63246 27.5652 9.50415C27.5619 9.37584 27.5093 9.25375 27.4183 9.16316C27.3274 9.07256 27.2052 9.02039 27.0768 9.01746C26.9485 9.01453 26.824 9.06106 26.729 9.14741Z" fill="#94FFDF"/>
    <path d="M30.2366 6.36761C30.2242 6.25214 30.1721 6.14457 30.089 6.06337C30.006 5.98217 29.8973 5.93241 29.7816 5.92261C28.8279 5.79925 27.8968 5.53996 27.0166 5.15261C26.1075 4.77404 25.2605 4.26079 24.5041 3.63011C24.4119 3.54579 24.2915 3.49902 24.1666 3.49902C24.0417 3.49902 23.9213 3.54579 23.8291 3.63011C23.0729 4.26107 22.2259 4.77434 21.3166 5.15261C20.4411 5.53833 19.5151 5.79759 18.5666 5.92261C18.4504 5.93185 18.3412 5.98137 18.2576 6.06263C18.1741 6.14388 18.1216 6.25175 18.1091 6.36761C18.0866 6.58011 17.5866 11.5726 18.8216 14.0376C20.2991 16.9826 23.8216 18.6351 23.9691 18.7051C24.0349 18.7356 24.1066 18.7514 24.1791 18.7514C24.2516 18.7514 24.3233 18.7356 24.3891 18.7051C24.5366 18.6351 28.0591 16.9826 29.5366 14.0376C30.7591 11.5726 30.2591 6.58011 30.2366 6.36761ZM28.6291 13.5901C27.5066 15.8326 24.9166 17.3001 24.1666 17.6926C23.4166 17.3001 20.8266 15.8326 19.7041 13.5901C18.7841 11.7501 18.9691 8.06762 19.0591 6.86261C19.9703 6.70385 20.8597 6.4387 21.7091 6.07261C22.5847 5.70234 23.4103 5.22359 24.1666 4.64761C24.9229 5.22359 25.7485 5.70234 26.6241 6.07261C27.4735 6.4387 28.3629 6.70385 29.2741 6.86261C29.3666 8.06762 29.5516 11.7501 28.6291 13.5901Z" fill="#94FFDF"/>
    <path d="M19.1665 24H24.1665C24.2991 24 24.4263 23.9473 24.5201 23.8536C24.6138 23.7598 24.6665 23.6326 24.6665 23.5C24.6665 23.3674 24.6138 23.2402 24.5201 23.1464C24.4263 23.0527 24.2991 23 24.1665 23H19.1665C19.0339 23 18.9067 23.0527 18.813 23.1464C18.7192 23.2402 18.6665 23.3674 18.6665 23.5C18.6665 23.6326 18.7192 23.7598 18.813 23.8536C18.9067 23.9473 19.0339 24 19.1665 24Z" fill="#94FFDF"/>
    <path d="M19.1665 21H22.1665C22.2991 21 22.4263 20.9473 22.5201 20.8536C22.6138 20.7598 22.6665 20.6326 22.6665 20.5C22.6665 20.3674 22.6138 20.2402 22.5201 20.1464C22.4263 20.0527 22.2991 20 22.1665 20H19.1665C19.0339 20 18.9067 20.0527 18.813 20.1464C18.7192 20.2402 18.6665 20.3674 18.6665 20.5C18.6665 20.6326 18.7192 20.7598 18.813 20.8536C18.9067 20.9473 19.0339 21 19.1665 21Z" fill="#94FFDF"/>
</svg>
