<svg width="20" height="20" viewBox="0 0 20 20" fill="none" xmlns="http://www.w3.org/2000/svg">
    <g clip-path="url(#clip0_222_2035)">
        <path d="M5.96802 11.5546C5.83209 11.1161 5.75754 10.6513 5.75754 10.1689C5.75754 9.32259 5.98556 8.48067 6.41529 7.74838C6.77925 7.13886 7.27037 6.61266 7.85796 6.21801C8.37977 5.86283 8.97175 5.61727 9.59442 5.49449C11.0371 5.24016 12.0939 5.58657 12.7385 5.93737C12.813 5.97684 12.8788 6.0163 12.9402 6.05577C13.0937 6.14785 13.212 6.23555 13.2997 6.30571C13.4181 6.3978 13.4795 6.46357 13.4795 6.46357L13.8172 6.4855C13.8172 6.4855 13.804 6.46796 13.7953 6.45919C13.7514 6.40218 13.7076 6.34956 13.6593 6.29694C13.6418 6.27502 13.6242 6.25309 13.6067 6.23117C13.4839 6.09085 13.3524 5.95491 13.2164 5.82775C13.1901 5.80582 13.1638 5.7839 13.1419 5.76197C13.0761 5.70497 13.0103 5.65235 12.9446 5.59973C12.7429 5.43748 12.528 5.28839 12.3044 5.15684C12.2254 5.11299 12.1509 5.06914 12.0719 5.02968C11.8308 4.9069 11.5764 4.80604 11.3133 4.72711C11.2256 4.7008 11.1379 4.67449 11.0459 4.65257C10.8968 4.61749 10.7477 4.59118 10.5986 4.57364C10.4846 4.56048 10.3706 4.55171 10.2522 4.54294C10.1689 4.53856 10.0855 4.52979 10.0022 4.52979C10.0022 4.52979 9.99784 4.52979 9.99346 4.52979C9.85314 4.52979 9.7172 4.53856 9.58127 4.55171C9.58127 4.55171 9.57688 4.55171 9.5725 4.55171C7.46331 4.74904 5.72246 6.38903 5.1568 8.58153C5.11295 8.74816 5.07787 8.91479 5.04717 9.0858C4.99017 9.41906 4.95947 9.76548 4.95947 10.1163C4.95947 11.6817 5.55583 13.1639 6.57754 14.2119C6.60823 14.2426 6.63893 14.2733 6.66962 14.304C6.73101 14.3653 6.80117 14.4224 6.86695 14.4794V13.2252C6.45914 12.7429 6.15219 12.1772 5.96364 11.5589L5.96802 11.5546Z" fill="#2B937A"/>
        <path d="M9.4057 4.12188L9.2303 1.67505C8.07266 1.76713 6.9808 2.09601 6.00732 2.61344L7.67801 4.66124C8.21298 4.38498 8.79619 4.19204 9.4057 4.12188Z" fill="#2B937A"/>
        <path d="M7.30123 4.87177L5.63055 2.82397C4.80617 3.31948 4.07387 3.94654 3.46436 4.68322L5.74017 6.32759C6.1699 5.74 6.70049 5.2445 7.30123 4.87177Z" fill="#2B937A"/>
        <path d="M5.50324 6.67826L3.20549 5.01196C2.57405 5.86265 2.09609 6.84051 1.82422 7.8973L4.72271 8.51558C4.88934 7.84906 5.15244 7.23077 5.50324 6.67826Z" fill="#2B937A"/>
        <path d="M4.69622 11.7212L4.62606 11.3879C4.62606 11.3879 4.61291 11.3923 4.60414 11.3967L1.74512 11.7694V11.787C2.00383 12.9709 2.51249 14.0584 3.20971 14.9968L5.43729 13.4533C5.10841 12.9227 4.85408 12.3439 4.70061 11.7212H4.69622Z" fill="#2B937A"/>
        <path d="M12.8829 6.52047C12.2076 6.08197 11.3964 5.82764 10.5238 5.82764C10.3221 5.82764 10.1204 5.84079 9.91864 5.8671C9.26966 5.95919 8.63822 6.20036 8.09886 6.5687C7.55951 6.92827 7.11224 7.41062 6.78336 7.96313C6.3931 8.62527 6.18262 9.39264 6.18262 10.1688C6.18262 10.524 6.22647 10.866 6.3054 11.1993C6.95438 10.8441 7.5025 10.3398 8.03309 9.79168C8.48474 9.32687 8.92324 8.83136 9.41436 8.37532C9.56345 8.23062 9.72131 8.09907 9.88356 7.96752C10.3791 7.57287 10.9316 7.2133 11.5236 6.94581C11.9533 6.75287 12.4093 6.60378 12.8741 6.51608L12.8829 6.52047Z" fill="#2B937A"/>
        <path d="M6.82765 15.023C6.41985 14.7029 6.06466 14.3214 5.75333 13.9004C5.72702 13.8653 5.69632 13.839 5.67001 13.804L3.46436 15.3299C3.63099 15.536 3.81077 15.729 3.99933 15.9175C4.81055 16.7244 5.78402 17.3646 6.86712 17.7899V15.0493C6.86712 15.0493 6.84081 15.0274 6.82765 15.0142L6.81888 15.023H6.82765Z" fill="#2B937A"/>
        <path d="M9.99781 0C4.47709 0 0 4.47709 0 9.99781C0 15.5185 4.47709 19.9956 9.99781 19.9956C15.5185 19.9956 19.9956 15.5185 19.9956 9.99781C19.9956 4.47709 15.5229 0 9.99781 0ZM11.1423 18.6977C10.9406 18.724 10.7345 18.7503 10.524 18.7634C10.4275 18.7722 10.3355 18.7766 10.2434 18.7766C10.1469 18.7766 10.0548 18.7854 9.95834 18.7854H9.91888C9.88818 18.7854 9.85749 18.7854 9.82241 18.7854C9.68209 18.7854 9.54177 18.7766 9.40145 18.7678C9.28744 18.759 9.17343 18.7547 9.05942 18.7415C8.35782 18.6757 7.68253 18.5266 7.04232 18.3074C7.02478 18.3074 7.00724 18.2986 6.9897 18.2898C5.40671 17.733 4.0342 16.7332 3.01688 15.444L2.98619 15.4089V15.3957C1.82855 13.9092 1.13572 12.0412 1.13572 10.0066C1.13572 9.33129 1.21465 8.67354 1.35935 8.0421V8.02017C1.35935 8.02017 1.36812 8.00702 1.36812 7.99386C1.66192 6.74413 2.21881 5.59526 2.9818 4.61302C2.9818 4.61302 2.9818 4.60425 2.99057 4.59987C2.99934 4.5911 2.99934 4.5911 3.00811 4.58233C3.70971 3.69217 4.57794 2.93357 5.56895 2.37229C5.56895 2.37229 5.58211 2.36352 5.58211 2.35913C6.20039 2.01272 6.86253 1.73208 7.55975 1.53475C8.05087 1.39882 8.55953 1.30235 9.07696 1.2585L9.46284 1.2278C9.55492 1.21903 9.65139 1.21903 9.74348 1.21465C9.82679 1.20588 9.91011 1.20588 9.99342 1.20588C14.8476 1.20588 18.7854 5.14361 18.7854 9.99781C18.7854 14.4661 15.4528 18.1451 11.1379 18.6977H11.1423Z" fill="#2B937A"/>
        <path d="M9.77836 10.6557C9.80906 10.6294 9.83976 10.5987 9.87045 10.5724C9.89237 10.5504 9.9143 10.5329 9.93622 10.511L9.92745 10.489L9.45387 8.92798C9.07676 9.29632 8.71719 9.69535 8.34008 10.0856C7.7788 10.6644 7.17367 11.2169 6.42822 11.6116C6.59485 12.0808 6.83603 12.5149 7.14298 12.8964C7.66918 12.6815 8.10768 12.3351 8.51548 11.9449C8.95398 11.5239 9.34863 11.0503 9.77836 10.6557Z" fill="#2B937A"/>
        <path d="M9.66478 11.3616C9.25697 11.787 8.83601 12.2693 8.32297 12.6771C8.30981 12.6859 8.29227 12.6946 8.27912 12.7078C8.16072 12.7999 8.03794 12.8832 7.91078 12.9665C7.79677 13.0235 7.35827 13.2428 7.29688 13.2603V17.9391C8.12126 18.2154 8.99826 18.3645 9.91911 18.3645C10.6909 18.3645 11.4363 18.2592 12.1467 18.0619V10.0286C11.7038 10.1031 11.2785 10.2215 10.8794 10.3969C10.4628 10.5811 10.077 10.9363 9.66916 11.3616H9.66478Z" fill="#2B937A"/>
        <path d="M10.2958 10.239C10.4273 10.1513 10.5633 10.0724 10.7036 10.011C11.471 9.67336 12.326 9.51988 13.1724 9.51988C13.7994 9.51988 14.4177 9.6032 15.0053 9.75667C15.0053 9.75667 15.0097 9.75229 15.0141 9.7479C14.9527 8.70427 14.6369 7.73957 14.1327 6.92834C14.08 6.91519 14.023 6.90203 13.9792 6.89326C13.8476 6.87134 13.7599 6.87134 13.7599 6.87134H13.7292C13.7292 6.87134 13.7161 6.87134 13.7073 6.87134H13.6109C13.567 6.87134 13.51 6.87134 13.4442 6.87134C13.1241 6.89326 12.804 6.95465 12.4927 7.04235C12.2252 7.1169 11.9621 7.21337 11.7034 7.33176C11.1465 7.58609 10.6247 7.91935 10.1511 8.30085C10.0283 8.39732 9.91429 8.49817 9.7959 8.60341L10.2432 10.068L10.2958 10.2346V10.239ZM13.909 7.14321C13.9617 7.12567 14.023 7.15636 14.0406 7.21337L14.6019 9.05068C14.6194 9.10769 14.5887 9.16908 14.5317 9.18224C14.4791 9.19977 14.4133 9.17347 14.4002 9.11208L13.8389 7.27476C13.8213 7.21775 13.852 7.15636 13.909 7.14321ZM12.5058 7.46331C12.5058 7.46331 12.8961 8.73935 12.975 8.99806C12.9882 9.05507 12.9619 9.11646 12.9049 9.12961C12.8479 9.14715 12.7865 9.11646 12.7689 9.05945C12.6505 8.66919 12.2997 7.5247 12.2997 7.5247C12.2822 7.4677 12.3129 7.40631 12.3699 7.39315C12.4225 7.37561 12.4883 7.40631 12.5014 7.46331H12.5058ZM10.9886 8.03336C11.0412 8.01582 11.107 8.04652 11.1202 8.10352C11.1202 8.10352 11.2035 8.37978 11.2912 8.66042C11.357 8.8709 11.4183 9.08576 11.4534 9.191C11.471 9.24801 11.4403 9.3094 11.3833 9.32694C11.3306 9.3401 11.2693 9.31379 11.2517 9.2524C11.2123 9.12523 11.1728 8.99368 11.1333 8.86651C11.0939 8.73935 11.0588 8.62095 11.0281 8.51571C10.9623 8.30523 10.9185 8.16053 10.9185 8.16053C10.9009 8.10352 10.9316 8.04652 10.9886 8.02898V8.03336Z" fill="#2B937A"/>
        <path d="M15.6939 12.7646C15.65 12.6813 15.593 12.5761 15.5273 12.4533C15.3957 12.2209 15.2379 11.9315 15.1326 11.6377C15.0581 11.4404 15.0098 11.2386 15.0098 11.0325V10.9931C15.0098 10.9931 15.0098 10.9492 15.0098 10.9273C15.0098 10.673 14.9616 10.4055 14.9046 10.1687C14.3565 10.024 13.7689 9.94507 13.1813 9.94507C12.9752 9.94507 12.7735 9.95384 12.5718 9.97576V15.2992C12.7866 15.3299 13.0454 15.3605 13.3085 15.3869C13.6461 15.4219 13.9837 15.4482 14.2205 15.4482C14.2732 15.4482 14.3214 15.4482 14.3652 15.4482C14.4617 15.4482 14.5275 15.4219 14.5582 15.4C14.5933 15.3781 14.6108 15.3605 14.6283 15.3255C14.6371 15.3035 14.6459 15.2728 14.6547 15.2378C14.6634 15.1939 14.6634 15.1369 14.6634 15.0711V15.0097C14.6634 15.0097 14.6634 14.9659 14.6634 14.922C14.6634 14.8738 14.6547 14.8124 14.6547 14.7466C14.6547 14.6984 14.6547 14.6502 14.6634 14.6019C14.6634 14.5537 14.6722 14.5055 14.681 14.4572C14.6897 14.4222 14.6941 14.3915 14.7117 14.352C14.7336 14.3125 14.7599 14.2818 14.7862 14.2511C14.8125 14.2248 14.8388 14.2029 14.8651 14.1854C14.9002 14.1547 14.9441 14.1327 14.9791 14.1152L14.9441 14.0144V14.0056H14.3609C14.3039 14.0056 14.2556 13.9573 14.2556 13.9003C14.2556 13.8433 14.3039 13.7951 14.3609 13.7951H14.9879C14.9879 13.7951 14.9879 13.7951 14.9967 13.7951L15.0975 13.6811C15.0975 13.6811 15.0975 13.6548 15.0975 13.6416C15.0888 13.5671 15.0844 13.475 15.0756 13.4005C15.0668 13.3522 15.0668 13.3084 15.0625 13.2996V13.2645C15.0625 13.2163 15.0756 13.1724 15.0932 13.1417C15.1107 13.111 15.1282 13.0935 15.1502 13.0803C15.1809 13.054 15.2028 13.0453 15.2291 13.0365C15.2729 13.019 15.308 13.0058 15.3519 12.997C15.4396 12.9751 15.5404 12.9532 15.6237 12.9269C15.6807 12.9093 15.7334 12.8918 15.7641 12.8699C15.7641 12.8699 15.7641 12.8611 15.7641 12.8567C15.7509 12.8304 15.7334 12.7953 15.7114 12.7515L15.6939 12.7646ZM14.4617 11.7341C14.3959 11.778 14.3214 11.8043 14.2425 11.8218C14.1635 11.8394 14.0758 11.8525 13.9881 11.8525C13.9004 11.8525 13.8215 11.8394 13.747 11.8218C13.6724 11.8043 13.6066 11.7736 13.5496 11.7166C13.5146 11.6728 13.5189 11.607 13.5628 11.5675C13.6066 11.5324 13.6724 11.5324 13.7119 11.5807C13.7119 11.5894 13.747 11.6114 13.7996 11.6201C13.8522 11.6333 13.9224 11.6421 13.9881 11.6421C14.0539 11.6421 14.1328 11.6333 14.1942 11.6201C14.2556 11.607 14.3126 11.5851 14.3389 11.5631C14.3872 11.5281 14.4529 11.5368 14.4836 11.5851C14.5187 11.6333 14.5099 11.6991 14.4617 11.7341ZM14.5363 11.0194C14.5363 11.0194 14.4705 11.0019 14.3784 10.9799C14.2863 10.958 14.1679 10.9273 14.0802 10.9054C14.0188 10.8922 13.9618 10.8791 13.9399 10.8747C13.9311 10.8747 13.9267 10.8747 13.9136 10.8747C13.8697 10.8747 13.7996 10.8878 13.747 10.9098C13.69 10.9229 13.6417 10.9448 13.6329 10.9448C13.5803 10.9668 13.5189 10.9448 13.497 10.8878C13.4751 10.8352 13.497 10.7694 13.554 10.7475C13.554 10.7475 13.6066 10.73 13.6768 10.7081C13.747 10.6861 13.8303 10.6642 13.918 10.6642C13.9355 10.6642 13.9574 10.6642 13.975 10.673C14.0101 10.673 14.0671 10.6905 14.1328 10.7081C14.1942 10.7212 14.2688 10.7431 14.3389 10.7563C14.4793 10.7914 14.5976 10.8221 14.5976 10.8221C14.6503 10.8352 14.6897 10.8966 14.6766 10.9492C14.6634 11.0062 14.602 11.0413 14.545 11.0282L14.5363 11.0194Z" fill="#2B937A"/>
        <path d="M13.5979 2.42918L13.1725 3.18779L12.9927 3.50789L12.3394 4.66992C12.3876 4.69623 12.4314 4.71815 12.4797 4.74446C12.7252 4.8804 12.9576 5.03826 13.1813 5.21366C13.2558 5.27066 13.326 5.32767 13.3961 5.38906C13.6022 5.56884 13.7908 5.76178 13.9706 5.96788C13.9706 5.97226 13.9793 5.97665 13.9837 5.98103L15.023 5.32328L15.6281 4.94179L16.2639 4.53837C15.5229 3.828 14.7555 3.008 13.5979 2.42041V2.42918Z" fill="#2B937A"/>
        <path d="M9.99782 4.08234C10.0899 4.08234 10.1776 4.09111 10.2697 4.09549C10.5591 4.11303 10.8441 4.14811 11.1204 4.2095C11.2169 4.23143 11.3089 4.26212 11.4054 4.28843C11.5852 4.34105 11.7606 4.40244 11.936 4.47699L12.756 3.01678L13.1945 2.23625C12.3526 1.87668 11.3133 1.64428 9.96713 1.63989C9.87066 1.63989 9.7698 1.63989 9.66895 1.64428L9.84435 4.08672C9.89697 4.08672 9.94959 4.07795 10.0022 4.07795L9.99782 4.08234Z" fill="#2B937A"/>
        <path d="M2.38979 11.2431L4.54721 10.9625C4.54721 10.9625 4.55598 10.9625 4.56037 10.9625C4.52967 10.7082 4.50775 10.4495 4.50775 10.1864C4.50775 9.76102 4.5516 9.34883 4.63491 8.94979C4.63491 8.94541 4.63491 8.93664 4.63491 8.93225L1.72766 8.31396C1.61803 8.86209 1.55664 9.42337 1.55664 10.0066C1.55664 10.4626 1.59611 10.9055 1.66627 11.3396L1.8022 11.3221L2.39418 11.2431H2.38979Z" fill="#2B937A"/>
        <path d="M18.7898 10.0021C18.7898 5.14794 14.852 1.21021 9.99784 1.21021C9.91453 1.21021 9.83121 1.21021 9.7479 1.21898C9.65143 1.21898 9.55934 1.21898 9.46726 1.23213L9.08138 1.26283C8.56395 1.31106 8.05529 1.40753 7.56417 1.53908C6.86695 1.73641 6.20481 2.01266 5.58653 2.36346C5.58653 2.36346 5.57776 2.37223 5.57338 2.37662C4.58236 2.9379 3.71413 3.6965 3.01253 4.58666C3.00376 4.59543 3.00376 4.59543 2.99499 4.6042C2.99499 4.6042 2.99499 4.61297 2.98622 4.61735C2.22323 5.59959 1.66195 6.74846 1.37254 7.99819C1.37254 8.00696 1.36377 8.01573 1.36377 8.0245V8.04643C1.21907 8.67787 1.14014 9.33562 1.14014 10.0109C1.14014 12.0412 1.83297 13.9092 2.99061 15.4001C2.99061 15.4001 2.99061 15.4088 2.99061 15.4132L3.0213 15.4483C4.03862 16.7375 5.41113 17.7417 6.99412 18.2942C7.00727 18.3029 7.0292 18.3073 7.04674 18.3117C7.68695 18.531 8.36224 18.6801 9.06384 18.7458C9.17785 18.759 9.29186 18.7634 9.40587 18.7721C9.54619 18.7853 9.68651 18.7853 9.82683 18.7897C9.85752 18.7897 9.88822 18.7897 9.9233 18.7897H9.96276C10.0592 18.7897 10.1513 18.7897 10.2478 18.7809C10.3443 18.7809 10.4363 18.7721 10.5284 18.7678C10.7389 18.7546 10.9406 18.7283 11.1467 18.702C11.3703 18.6713 11.5896 18.6318 11.8088 18.5836C15.7948 17.7548 18.7942 14.2337 18.7942 10.0021H18.7898ZM14.2162 15.4527C13.9794 15.4527 13.6374 15.4264 13.3041 15.3913C13.0454 15.365 12.7867 15.3343 12.5675 15.3036V9.98021C12.7692 9.96267 12.9753 9.94952 13.177 9.94952C13.7646 9.94952 14.3522 10.0284 14.9003 10.1732C14.9573 10.4099 15.0055 10.6818 15.0055 10.9318C15.0055 10.9537 15.0055 10.9756 15.0055 10.9975V11.037C15.0055 11.2431 15.0581 11.4448 15.1283 11.6421C15.2335 11.9359 15.3914 12.2253 15.5229 12.4577C15.5887 12.5805 15.6457 12.6858 15.6896 12.7691C15.7115 12.8129 15.7247 12.848 15.7422 12.8743C15.7422 12.8831 15.7422 12.8831 15.7422 12.8875C15.7115 12.905 15.6633 12.9225 15.6019 12.9445C15.5186 12.9708 15.4133 12.9927 15.33 13.0146C15.2862 13.0234 15.2511 13.0366 15.2072 13.0541C15.1809 13.0629 15.159 13.0716 15.1283 13.0979C15.1108 13.1111 15.0932 13.133 15.0713 13.1593C15.0494 13.1856 15.0406 13.2339 15.0406 13.2821V13.3172C15.0406 13.3172 15.0494 13.3698 15.0538 13.4181C15.0625 13.4926 15.0669 13.5847 15.0757 13.6592C15.0757 13.6724 15.0757 13.6855 15.0757 13.6987L14.9748 13.8127H14.9661H14.339C14.282 13.8127 14.2338 13.8609 14.2338 13.9179C14.2338 13.9749 14.282 14.0232 14.339 14.0232H14.9222V14.032L14.9573 14.1328C14.9222 14.1503 14.8784 14.1723 14.8433 14.203C14.817 14.2205 14.7907 14.2424 14.7643 14.2687C14.738 14.2994 14.7117 14.3258 14.6898 14.3696C14.6723 14.4091 14.6635 14.4441 14.6591 14.4748C14.6503 14.5231 14.6459 14.5713 14.6416 14.6195C14.6416 14.6722 14.6328 14.7204 14.6328 14.7642C14.6328 14.83 14.6328 14.8914 14.6416 14.9397C14.6416 14.9835 14.6416 15.0186 14.6416 15.0274V15.0887C14.6416 15.1501 14.6416 15.2115 14.6328 15.2554C14.624 15.2905 14.6196 15.3211 14.6065 15.3431C14.5889 15.3782 14.5758 15.3957 14.5363 15.4176C14.5056 15.4395 14.4399 15.4615 14.3434 15.4659C14.3039 15.4659 14.2557 15.4659 14.1987 15.4659L14.2162 15.4527ZM9.94084 10.5152C9.91891 10.5371 9.89699 10.5546 9.87506 10.5766C9.84437 10.6029 9.81367 10.6336 9.78298 10.6599C9.35325 11.0545 8.9586 11.5281 8.5201 11.9491C8.11229 12.3393 7.67379 12.6858 7.14759 12.9006C6.84064 12.5191 6.59947 12.085 6.43284 11.6158C7.17829 11.2256 7.78342 10.6687 8.3447 10.0898C8.72181 9.69957 9.08138 9.30054 9.45849 8.9322L9.93207 10.4933L9.94084 10.5152ZM6.58193 14.2117C5.56022 13.1593 4.96386 11.6772 4.96386 10.1161C4.96386 9.76535 4.99894 9.41893 5.05156 9.08567C5.08225 8.91466 5.11733 8.74803 5.16118 8.5814C5.72685 6.38889 7.4677 4.7489 9.57688 4.55158C9.57688 4.55158 9.58127 4.55158 9.58565 4.55158C9.72159 4.53842 9.86191 4.52965 9.99784 4.52965C9.99784 4.52965 10.0022 4.52965 10.0066 4.52965C10.0899 4.52965 10.1732 4.53842 10.2566 4.54281C10.375 4.55158 10.489 4.55596 10.603 4.5735C10.7564 4.59543 10.9055 4.61735 11.0502 4.65243C11.1423 4.67436 11.2256 4.70067 11.3177 4.72698C11.5808 4.80591 11.8308 4.90676 12.0763 5.02954C12.1553 5.06901 12.2342 5.11286 12.3087 5.15671C12.5324 5.28826 12.7472 5.43296 12.949 5.59959C13.0147 5.65221 13.0805 5.70483 13.1463 5.76184C13.1726 5.78376 13.1989 5.80569 13.2208 5.82761C13.3568 5.95478 13.4883 6.09071 13.6111 6.23103C13.6286 6.25296 13.6462 6.27488 13.6637 6.29681C13.7076 6.34943 13.7558 6.40643 13.7996 6.45905C13.8084 6.46782 13.8172 6.47659 13.8216 6.48536L13.4839 6.46344C13.4839 6.46344 13.4225 6.39766 13.3041 6.30558C13.2164 6.23542 13.098 6.14772 12.9446 6.05563C12.8832 6.01617 12.813 5.9767 12.7429 5.93724C12.0983 5.59082 11.0415 5.24002 9.59881 5.49435C8.97614 5.61713 8.38416 5.86269 7.86235 6.21788C7.27476 6.61253 6.77925 7.13873 6.41968 7.74825C5.98995 8.48054 5.76193 9.31808 5.76193 10.1688C5.76193 10.6511 5.83648 11.1159 5.97241 11.5544C6.16097 12.1771 6.46792 12.7428 6.87572 13.2251V14.4792C6.80995 14.4222 6.73979 14.3652 6.6784 14.3038C6.6477 14.2731 6.61701 14.2424 6.58631 14.2117H6.58193ZM12.8832 6.52483C12.4184 6.60814 11.9667 6.75723 11.5326 6.95456C10.9406 7.22204 10.3881 7.58162 9.8926 7.97627C9.73036 8.10782 9.5725 8.24375 9.42341 8.38407C8.93229 8.84011 8.4894 9.34 8.04213 9.80043C7.50716 10.3486 6.95904 10.8528 6.31444 11.208C6.23551 10.8748 6.19166 10.5327 6.19166 10.1775C6.19166 9.40139 6.39776 8.63402 6.79241 7.97188C7.12128 7.41499 7.57294 6.93263 8.10791 6.57745C8.64726 6.20911 9.2787 5.96793 9.92768 5.87585C10.1294 5.84954 10.3311 5.83638 10.5328 5.83638C11.401 5.83638 12.2123 6.09071 12.8919 6.52921L12.8832 6.52483ZM9.80052 8.60771C9.91891 8.50247 10.0329 8.39723 10.1557 8.30514C10.6293 7.92365 11.1555 7.59038 11.708 7.33605C11.9667 7.21766 12.2298 7.12557 12.4973 7.04664C12.8086 6.95894 13.1244 6.89755 13.4488 6.87563C13.519 6.87563 13.5716 6.87563 13.6155 6.87563H13.7119C13.7119 6.87563 13.7295 6.87563 13.7339 6.87563H13.7646C13.7646 6.87563 13.8523 6.87563 13.9838 6.89755C14.0277 6.90632 14.0847 6.91948 14.1373 6.93263C14.6459 7.74386 14.9573 8.70856 15.0187 9.75219C15.0187 9.75219 15.0143 9.75658 15.0099 9.76096C14.4267 9.60749 13.804 9.52417 13.177 9.52417C12.3307 9.52417 11.4756 9.67765 10.7082 10.0153C10.5679 10.0767 10.432 10.1556 10.3004 10.2433L10.2478 10.0767L9.80052 8.61209V8.60771ZM16.2596 4.54719L15.6238 4.95061L15.0187 5.33211L13.9794 5.98986C13.9794 5.98986 13.9707 5.98109 13.9663 5.9767C13.7865 5.77061 13.5979 5.57328 13.3918 5.39788C13.3217 5.33649 13.2515 5.27949 13.177 5.22248C12.9533 5.04708 12.7209 4.88922 12.4754 4.75329C12.4315 4.72698 12.3833 4.70505 12.335 4.67874L12.9884 3.51672L13.1682 3.19661L13.5935 2.43801C14.7468 3.0256 15.5142 3.84121 16.2596 4.55596V4.54719ZM9.96715 1.64871C11.3177 1.65309 12.3526 1.88988 13.1945 2.24507L12.756 3.0256L11.936 4.4858C11.765 4.41126 11.5852 4.34987 11.4054 4.29725C11.3133 4.27094 11.2169 4.24024 11.1204 4.21832C10.8441 4.15254 10.5591 4.11746 10.2697 4.10431C10.1776 4.09992 10.0899 4.09115 9.99784 4.09115C9.94522 4.09115 9.8926 4.09992 9.83998 4.09992L9.66458 1.65748C9.76544 1.65748 9.86629 1.65309 9.96276 1.65309L9.96715 1.64871ZM9.23047 1.6794L9.40587 4.12623C8.79197 4.20078 8.21315 4.38933 7.67818 4.66559L6.00749 2.61779C6.98535 2.09598 8.07283 1.77149 9.23047 1.6794ZM5.63477 2.82827L7.30545 4.87607C6.70471 5.25318 6.17851 5.7443 5.74439 6.33189L3.46857 4.68751C4.07809 3.95083 4.81038 3.31939 5.63477 2.82827ZM3.20986 5.02077L5.5076 6.68707C5.1568 7.23958 4.8937 7.86226 4.72707 8.52439L1.82858 7.90611C2.10045 6.84932 2.57842 5.87585 3.20986 5.02077ZM1.72773 8.3183L4.63498 8.93658C4.63498 8.93658 4.63498 8.94974 4.63498 8.95412C4.55167 9.35316 4.50782 9.76973 4.50782 10.1907C4.50782 10.4538 4.52974 10.7125 4.56044 10.9668C4.56044 10.9668 4.55167 10.9668 4.54728 10.9668L2.38986 11.2475L1.79789 11.3264L1.66195 11.3439C1.59179 10.9098 1.55233 10.4626 1.55233 10.0109C1.55233 9.4277 1.61372 8.86642 1.72334 8.3183H1.72773ZM1.74965 11.7956V11.7781L4.60429 11.4053C4.61306 11.4053 4.61744 11.401 4.62621 11.3966L4.69637 11.7298C4.85423 12.3525 5.10418 12.9313 5.43306 13.4619L3.20547 15.0054C2.50826 14.067 1.9996 12.9796 1.74527 11.7956H1.74965ZM6.87572 17.7987C5.78824 17.3733 4.81915 16.7331 4.00793 15.9263C3.81937 15.7377 3.64397 15.5404 3.47296 15.3387L5.67862 13.8127C5.70493 13.8478 5.73562 13.8785 5.76193 13.9092C6.06888 14.3301 6.42407 14.7116 6.83626 15.0317L6.84503 15.023C6.84503 15.023 6.86695 15.0449 6.88449 15.058V17.7987H6.87572ZM9.91891 18.3775C9.00245 18.3775 8.12106 18.2284 7.29668 17.9521V13.2733C7.36246 13.2558 7.79657 13.0366 7.91058 12.9796C8.03775 12.8962 8.16053 12.8129 8.27892 12.7208C8.29208 12.7121 8.30962 12.7033 8.32277 12.6901C8.83582 12.2823 9.25678 11.8 9.66458 11.3746C10.0724 10.9493 10.4583 10.5941 10.8748 10.4099C11.2739 10.2345 11.6992 10.1118 12.1421 10.0416V18.0749C11.4317 18.2723 10.6863 18.3775 9.91453 18.3775H9.91891Z" fill="white"/>
        <path d="M11.1379 8.87092C11.1773 8.99808 11.2168 9.12963 11.2563 9.2568C11.2738 9.3138 11.3352 9.3445 11.3878 9.33134C11.4448 9.3138 11.4755 9.25241 11.458 9.19541C11.4273 9.08578 11.3615 8.8753 11.2957 8.66482C11.208 8.38418 11.1247 8.10793 11.1247 8.10793C11.1116 8.05531 11.0458 8.02023 10.9932 8.03777C10.9406 8.05531 10.9055 8.11231 10.923 8.16932C10.923 8.16932 10.9669 8.31402 11.0326 8.5245C11.0633 8.62974 11.0984 8.74814 11.1379 8.8753V8.87092Z" fill="white"/>
        <path d="M14.5363 9.18213C14.5933 9.16898 14.624 9.10759 14.6064 9.05058L14.0451 7.21327C14.0276 7.15626 13.9662 7.12557 13.9136 7.14311C13.861 7.15626 13.8259 7.21765 13.8434 7.27466L14.4047 9.11197C14.4179 9.16898 14.4793 9.19967 14.5363 9.18213Z" fill="white"/>
        <path d="M12.9095 9.12957C12.9621 9.11641 12.9928 9.05502 12.9797 8.99802C12.9007 8.7393 12.5105 7.46327 12.5105 7.46327C12.4973 7.40626 12.4315 7.37557 12.3789 7.39311C12.3263 7.40626 12.2912 7.46765 12.3088 7.52466C12.3088 7.52466 12.6596 8.66914 12.778 9.05941C12.7955 9.11203 12.8569 9.14711 12.9139 9.12957H12.9095Z" fill="white"/>
        <path d="M14.4618 11.7341C14.5101 11.699 14.5188 11.6332 14.4838 11.585C14.4531 11.5368 14.3873 11.528 14.3391 11.5631C14.3127 11.5806 14.2601 11.6026 14.1943 11.6201C14.133 11.6332 14.0584 11.642 13.9883 11.642C13.9181 11.642 13.8479 11.6332 13.7997 11.6201C13.7471 11.6069 13.712 11.585 13.712 11.5806C13.6725 11.5368 13.6068 11.5324 13.5629 11.5675C13.5191 11.6069 13.5147 11.6727 13.5498 11.7166C13.6068 11.7736 13.6725 11.8043 13.7471 11.8218C13.8216 11.8393 13.9049 11.8525 13.9883 11.8525C14.0716 11.8525 14.1593 11.8393 14.2426 11.8218C14.3215 11.8043 14.3961 11.778 14.4618 11.7341Z" fill="white"/>
        <path d="M13.6285 10.9405C13.6285 10.9405 13.6812 10.9186 13.7425 10.9055C13.7952 10.8879 13.8653 10.8704 13.9092 10.8704C13.9223 10.8704 13.9267 10.8704 13.9355 10.8704C13.9618 10.8704 14.0144 10.8835 14.0758 10.9011C14.1679 10.923 14.2863 10.9537 14.374 10.9756C14.4661 10.9975 14.5318 11.0151 14.5318 11.0151C14.5888 11.0282 14.6502 10.9975 14.6634 10.9361C14.6765 10.8835 14.6415 10.8221 14.5845 10.809C14.5845 10.809 14.4617 10.7783 14.3257 10.7432C14.2556 10.7301 14.1854 10.7081 14.1197 10.695C14.0539 10.6818 13.9969 10.6643 13.9618 10.6599C13.9443 10.6599 13.9223 10.6511 13.9048 10.6511C13.8171 10.6511 13.7338 10.673 13.6636 10.695C13.5935 10.7169 13.5408 10.7344 13.5408 10.7344C13.4882 10.7564 13.4619 10.8178 13.4838 10.8748C13.5058 10.9318 13.5671 10.9537 13.6198 10.9318L13.6285 10.9405Z" fill="white"/>
    </g>
    <defs>
        <clipPath id="clip0_222_2035">
            <rect width="20" height="20" fill="white"/>
        </clipPath>
    </defs>
</svg>
