<svg width="28" height="28" viewBox="0 0 28 28" fill="none" xmlns="http://www.w3.org/2000/svg">
    <path d="M26.8003 0.000301374H1.19969C1.0439 -0.00446972 0.888737 0.0220954 0.743404 0.0784208C0.598071 0.134746 0.46553 0.219685 0.353642 0.328199C0.241754 0.436713 0.152798 0.566591 0.0920503 0.710132C0.0313026 0.853672 0 1.00795 0 1.16382C0 1.31968 0.0313026 1.47396 0.0920503 1.6175C0.152798 1.76104 0.241754 1.89092 0.353642 1.99944C0.46553 2.10795 0.598071 2.19289 0.743404 2.24921C0.888737 2.30554 1.0439 2.3321 1.19969 2.32733H26.8003C26.9561 2.3321 27.1113 2.30554 27.2566 2.24921C27.4019 2.19289 27.5345 2.10795 27.6464 1.99944C27.7583 1.89092 27.8472 1.76104 27.908 1.6175C27.9687 1.47396 28 1.31968 28 1.16382C28 1.00795 27.9687 0.853672 27.908 0.710132C27.8472 0.566591 27.7583 0.436713 27.6464 0.328199C27.5345 0.219685 27.4019 0.134746 27.2566 0.0784208C27.1113 0.0220954 26.9561 -0.00446972 26.8003 0.000301374Z" fill="#94FFDF"/>
    <path d="M14.9465 8.63402C14.8391 8.48319 14.6973 8.36017 14.5327 8.27516C14.3682 8.19016 14.1858 8.14563 14.0007 8.14526C13.8229 8.14529 13.6476 8.18612 13.4881 8.26462C13.3287 8.34312 13.1894 8.45718 13.081 8.59801L6.677 15.0031C6.45884 15.2218 6.33651 15.5183 6.33692 15.8272C6.33732 16.1361 6.46044 16.4323 6.67919 16.6504C6.89793 16.8686 7.19438 16.9909 7.50332 16.9905C7.81226 16.9901 8.10838 16.867 8.32655 16.6483L12.8388 12.136L12.8191 26.7648C12.819 26.9177 12.849 27.069 12.9073 27.2103C12.9657 27.3516 13.0513 27.48 13.1593 27.5882C13.2673 27.6964 13.3956 27.7823 13.5367 27.8409C13.6779 27.8995 13.8292 27.9298 13.9821 27.9299C14.2911 27.9299 14.5875 27.8072 14.806 27.5887C15.0245 27.3702 15.1473 27.0738 15.1473 26.7648L15.1604 12.1382L19.653 16.6308C19.8716 16.8491 20.1679 16.9716 20.4769 16.9714C20.7858 16.9712 21.082 16.8483 21.3003 16.6297C21.5186 16.4111 21.6412 16.1147 21.641 15.8058C21.6407 15.4969 21.5178 15.2007 21.2992 14.9823L14.9465 8.63402Z" fill="#94FFDF"/>
</svg>
