<svg width="24" height="25" viewBox="0 0 24 25" fill="none" xmlns="http://www.w3.org/2000/svg">
<path opacity="0.5" d="M22.0013 12.0014C22.0013 17.5244 17.524 22.0018 12.0009 22.0018C6.47782 22.0018 2.00049 17.5244 2.00049 12.0014C2.00049 6.47831 6.47782 2.00098 12.0009 2.00098C17.524 2.00098 22.0013 6.47831 22.0013 12.0014Z" fill="#5A6865"/>
<path d="M16.8079 19.0132C15.4406 19.9524 13.7849 20.502 12.0007 20.502C10.2166 20.502 8.5608 19.9524 7.19352 19.0131C6.58964 18.5983 6.33157 17.8081 6.68268 17.1651C7.41054 15.8321 8.91032 15.0018 12.0007 15.0018C15.0911 15.0018 16.5909 15.8321 17.3187 17.1651C17.6698 17.8082 17.4117 18.5984 16.8079 19.0132Z" fill="#5A6865"/>
<path d="M12.0008 12.0017C13.6577 12.0017 15.0009 10.6585 15.0009 9.00158C15.0009 7.34466 13.6577 6.00146 12.0008 6.00146C10.3438 6.00146 9.00063 7.34466 9.00063 9.00158C9.00063 10.6585 10.3438 12.0017 12.0008 12.0017Z" fill="#5A6865"/>
</svg>
