<svg width="24" height="25" viewBox="0 0 24 25" fill="none" xmlns="http://www.w3.org/2000/svg">
<path opacity="0.5" d="M3 10.0035C3 6.23211 3 4.34641 4.17162 3.17479C5.34324 2.00317 7.22893 2.00317 11.0003 2.00317H13.0004C16.7718 2.00317 18.6575 2.00317 19.8291 3.17479C21.0007 4.34641 21.0007 6.23211 21.0007 10.0035V14.0037C21.0007 17.775 21.0007 19.6607 19.8291 20.8323C18.6575 22.004 16.7718 22.004 13.0004 22.004H11.0003C7.22893 22.004 5.34324 22.004 4.17162 20.8323C3 19.6607 3 17.775 3 14.0037V10.0035Z" fill="#00FFD5"/>
<path fill-rule="evenodd" clip-rule="evenodd" d="M7.25 12.0039C7.25 11.5897 7.5858 11.2539 8.00003 11.2539H16.0003C16.4146 11.2539 16.7504 11.5897 16.7504 12.0039C16.7504 12.4182 16.4146 12.754 16.0003 12.754H8.00003C7.5858 12.754 7.25 12.4182 7.25 12.0039Z" fill="#00FFD5"/>
<path fill-rule="evenodd" clip-rule="evenodd" d="M7.25 8.00296C7.25 7.58873 7.5858 7.25293 8.00003 7.25293H16.0003C16.4146 7.25293 16.7504 7.58873 16.7504 8.00296C16.7504 8.41719 16.4146 8.75299 16.0003 8.75299H8.00003C7.5858 8.75299 7.25 8.41719 7.25 8.00296Z" fill="#00FFD5"/>
<path fill-rule="evenodd" clip-rule="evenodd" d="M7.25049 16.0039C7.25049 15.5897 7.58629 15.2539 8.00052 15.2539H13.0007C13.4149 15.2539 13.7507 15.5897 13.7507 16.0039C13.7507 16.4182 13.4149 16.754 13.0007 16.754H8.00052C7.58629 16.754 7.25049 16.4182 7.25049 16.0039Z" fill="#00FFD5"/>
</svg>
