<svg width="24" height="25" viewBox="0 0 24 25" fill="none" xmlns="http://www.w3.org/2000/svg">
    <path d="M10.3997 20.0022C12.897 20.0022 14.9215 16.4204 14.9215 12.0021C14.9215 7.58374 12.897 4.00195 10.3997 4.00195C7.90241 4.00195 5.87793 7.58374 5.87793 12.0021C5.87793 16.4204 7.90241 20.0022 10.3997 20.0022Z" fill="#00FFD5"/>
    <path d="M20.8002 12.0024C20.8002 11.3776 20.7636 10.7656 20.6964 10.169H20.7041L20.6465 9.75207C20.6429 9.7253 20.637 9.69965 20.633 9.67322C20.5956 9.41325 20.5516 9.15693 20.5021 8.90431C20.483 8.8053 20.4625 8.70703 20.4416 8.60914C20.3987 8.41113 20.3517 8.21605 20.3015 8.0232C20.2593 7.85965 20.2139 7.6983 20.1666 7.53806C20.1262 7.4024 20.0848 7.26782 20.0412 7.13543C19.9675 6.91177 19.8879 6.69322 19.8039 6.47652C19.7764 6.40575 19.7497 6.33463 19.721 6.26493C19.684 6.17401 19.6521 6.07939 19.6132 5.98953L19.5172 5.76879H19.5047C19.1971 5.10035 18.8417 4.48578 18.4457 3.93537H18.5026L17.9874 3.33108C17.2815 2.50274 16.4957 1.89479 15.6604 1.50501C15.6388 1.49474 15.6172 1.48593 15.5955 1.47605C15.4258 1.39939 15.2538 1.33119 15.08 1.27327C14.9993 1.24615 14.9183 1.22046 14.8365 1.197C14.7624 1.17611 14.6887 1.15446 14.6139 1.13722C14.4592 1.10057 14.3026 1.07234 14.1449 1.05068C14.0984 1.04445 14.0514 1.03968 14.0045 1.03457C13.827 1.01515 13.6481 1.00195 13.4673 1.00195H10.5338C6.4901 1.00195 3.2002 5.93677 3.2002 12.0024C3.2002 18.068 6.49006 23.0028 10.5338 23.0028H13.4673C13.6484 23.0028 13.827 22.9896 14.0049 22.9702C14.0518 22.9651 14.0984 22.9603 14.1453 22.9541C14.3033 22.9321 14.4595 22.9039 14.6143 22.8676C14.6887 22.8503 14.7624 22.8287 14.8361 22.8078C14.9182 22.7843 14.9997 22.7587 15.0807 22.7315C15.2538 22.6739 15.4246 22.6061 15.5941 22.5295C15.6165 22.5192 15.6388 22.51 15.6612 22.4994C16.4961 22.1096 17.2819 21.502 17.9878 20.6737L18.5026 20.0694H18.4465C18.8425 19.519 19.1978 18.9045 19.5055 18.236H19.5179L19.6136 18.0152C19.6525 17.9258 19.6844 17.8312 19.721 17.7402C19.7504 17.6691 19.7775 17.5965 19.8054 17.5243C19.8886 17.3094 19.9678 17.0923 20.0408 16.8705C20.0855 16.7359 20.1273 16.5991 20.1684 16.4613C20.215 16.3029 20.2601 16.1437 20.3015 15.982C20.3518 15.7884 20.3991 15.5922 20.442 15.3935C20.4628 15.2959 20.483 15.1981 20.5021 15.0998C20.5516 14.8472 20.5956 14.5908 20.633 14.3312C20.6366 14.3044 20.6428 14.2791 20.6465 14.2524L20.7041 13.8355H20.6964C20.7635 13.2392 20.8002 12.6272 20.8002 12.0024ZM19.7034 8.64945C19.7064 8.66303 19.7093 8.67695 19.7122 8.69053C19.7661 8.93546 19.8146 9.1837 19.8567 9.43525H17.6662C17.6603 9.39894 17.6522 9.36375 17.6463 9.32782C17.621 9.17712 17.5932 9.02823 17.5638 8.88011C17.5294 8.70449 17.4912 8.53102 17.4513 8.35832C17.4359 8.29417 17.4212 8.22963 17.4054 8.16582C17.2635 7.59195 17.0937 7.03496 16.8888 6.50183H19.0331C19.3122 7.17982 19.5359 7.8985 19.7034 8.64945ZM18.7061 5.76879H16.5713C16.5705 5.76768 16.5702 5.7666 16.5694 5.76514C16.5489 5.72075 16.528 5.67753 16.5071 5.63352C16.4242 5.45898 16.3384 5.28813 16.2489 5.12127C16.235 5.09523 16.2218 5.06812 16.2075 5.04242C16.1071 4.85834 16.0018 4.68014 15.8936 4.50632C15.868 4.46524 15.8419 4.42494 15.8163 4.38459C15.718 4.23058 15.6172 4.08061 15.5126 3.93542H17.5426C17.9775 4.46894 18.3687 5.08458 18.7061 5.76879ZM13.4666 1.73533C13.6022 1.73533 13.7372 1.74375 13.8714 1.7566C13.9117 1.76025 13.9517 1.76614 13.992 1.77091C14.0906 1.78303 14.1889 1.79841 14.2864 1.81749C14.3257 1.82518 14.3653 1.83214 14.4045 1.84095C14.6718 1.90034 14.9351 1.98507 15.1944 2.09469C15.2219 2.10642 15.2486 2.11888 15.2761 2.131C15.395 2.18416 15.513 2.24101 15.6296 2.30482C15.6395 2.31032 15.6498 2.31509 15.6597 2.32059C16.0737 2.54941 16.4733 2.84384 16.8547 3.20208H14.9414C14.3964 2.58679 13.8068 2.09581 13.1842 1.73537H13.4666V1.73533ZM10.5331 21.1694C7.5516 21.1694 5.03289 16.9716 5.03289 12.0024C5.03289 7.03316 7.5516 2.83537 10.5331 2.83537C13.5146 2.83537 16.0333 7.03316 16.0333 12.0024C16.0333 16.9716 13.5146 21.1694 10.5331 21.1694ZM15.6593 21.6846C15.6498 21.6897 15.6402 21.6945 15.6307 21.6997C15.5133 21.7635 15.3949 21.8211 15.2754 21.8742C15.2486 21.8859 15.2218 21.8984 15.1947 21.9098C14.9355 22.0198 14.6718 22.1045 14.4041 22.1639C14.3653 22.1727 14.326 22.1797 14.2864 22.1874C14.1886 22.2065 14.0903 22.2218 13.9916 22.234C13.9517 22.2387 13.9117 22.2442 13.8713 22.2483C13.7368 22.2611 13.6022 22.2695 13.4665 22.2695H13.1846C13.8068 21.9091 14.3964 21.4181 14.9413 20.8028H16.8547C16.4733 21.1614 16.0733 21.4554 15.6593 21.6846ZM17.5422 20.0694H15.5123C15.6168 19.9242 15.7176 19.7742 15.8162 19.6202C15.8423 19.5798 15.8683 19.5395 15.8936 19.4985C16.0017 19.3246 16.107 19.1464 16.2075 18.9624C16.2218 18.9363 16.235 18.9095 16.2489 18.8835C16.3384 18.7167 16.4242 18.5458 16.507 18.3713C16.5279 18.3273 16.5488 18.284 16.5694 18.2396C16.5697 18.2385 16.5705 18.2374 16.5712 18.236H18.706C18.3687 18.9202 17.9775 19.5358 17.5422 20.0694ZM19.7122 15.3139C19.7093 15.3275 19.7064 15.3414 19.7034 15.355C19.5358 16.1059 19.3122 16.8247 19.0331 17.5027H16.8888C17.0941 16.9691 17.2639 16.4114 17.4058 15.8375C17.4212 15.7752 17.4359 15.7118 17.4505 15.6491C17.4912 15.4742 17.5297 15.2985 17.5646 15.1203C17.5935 14.9737 17.621 14.8262 17.6463 14.677C17.6522 14.6407 17.6603 14.6055 17.6662 14.5692H19.8567C19.8149 14.8207 19.7661 15.0689 19.7122 15.3139ZM19.9594 13.8358H17.763C17.7652 13.8164 17.7677 13.7973 17.7699 13.7782C17.7725 13.7529 17.7762 13.7283 17.7787 13.7031C17.8044 13.4567 17.8231 13.2073 17.8374 12.9558C17.841 12.8957 17.844 12.8355 17.8465 12.7754C17.8583 12.5198 17.8667 12.2624 17.8667 12.0024C17.8667 11.7425 17.8586 11.485 17.8465 11.2295C17.8436 11.1694 17.8407 11.1092 17.8374 11.0491C17.8231 10.7979 17.8044 10.5482 17.7787 10.3018C17.7762 10.2765 17.7725 10.2519 17.7699 10.2266C17.7677 10.2072 17.7652 10.1881 17.763 10.1691H19.9594C20.0287 10.7645 20.0668 11.3765 20.0668 12.0025C20.0668 12.6284 20.0287 13.2403 19.9594 13.8358Z" fill="#00FFD5"/>
</svg>
