<svg width="24" height="25" viewBox="0 0 24 25" fill="none" xmlns="http://www.w3.org/2000/svg">
    <path opacity="0.5" d="M12.0524 2.00488C13.7327 2.00487 15.0636 2.00486 16.1052 2.14734C17.1772 2.29398 18.0448 2.60294 18.7291 3.29911C19.4133 3.99529 19.717 4.87807 19.8611 5.96874C20.0011 7.0285 20.0011 8.38265 20.0011 10.0922V10.0923V13.9183V13.9184C20.0011 15.628 20.0011 16.9821 19.8611 18.0418C19.717 19.1325 19.4133 20.0153 18.7291 20.7114C18.0448 21.4076 17.1772 21.7166 16.1052 21.8632C15.0636 22.0057 13.7327 22.0057 12.0524 22.0057H11.9492C10.2689 22.0057 8.93799 22.0057 7.89639 21.8632C6.82442 21.7166 5.95678 21.4076 5.27253 20.7114C4.58829 20.0153 4.28463 19.1325 4.1405 18.0418C4.00046 16.982 4.00047 15.6279 4.00049 13.9183V13.9183V10.0922V10.0922C4.00047 8.38264 4.00046 7.02851 4.1405 5.96874C4.28463 4.87807 4.58829 3.99529 5.27253 3.29911C5.95678 2.60294 6.82442 2.29398 7.89639 2.14734C8.938 2.00486 10.2689 2.00487 11.9492 2.00488H11.9492H12.0524H12.0524Z" fill="#5A6865"/>
    <path d="M8.57178 18.517C8.57178 18.1317 8.87879 17.8193 9.25752 17.8193H14.7435C15.1222 17.8193 15.4292 18.1317 15.4292 18.517C15.4292 18.9024 15.1222 19.2147 14.7435 19.2147H9.25752C8.87879 19.2147 8.57178 18.9024 8.57178 18.517Z" fill="#5A6865"/>
</svg>
