<svg width="24" height="25" viewBox="0 0 24 25" fill="none" xmlns="http://www.w3.org/2000/svg">
    <path d="M6.94048 2.00635C7.35635 2.00635 7.69349 2.33057 7.69349 2.73051V4.19131C8.36142 4.17885 9.11011 4.17885 9.95251 4.17885H13.9686C14.811 4.17885 15.5596 4.17885 16.2276 4.19131V2.73051C16.2276 2.33057 16.5647 2.00635 16.9806 2.00635C17.3965 2.00635 17.7336 2.33057 17.7336 2.73051V4.25537C19.1787 4.36666 20.1274 4.63978 20.8244 5.31007C21.5213 5.98035 21.8053 6.89271 21.9211 8.28246L22.0008 9.00663H2.92459H2V8.28246C2.11572 6.89271 2.39971 5.98035 3.0967 5.31007C3.79368 4.63978 4.74237 4.36666 6.18747 4.25537V2.73051C6.18747 2.33057 6.5246 2.00635 6.94048 2.00635Z" fill="#00FFD5"/>
    <path opacity="0.5" d="M22.0008 14.0066V12.0065C22.0008 11.1675 21.9975 9.67164 21.9846 9.00635H2.00966C1.99675 9.67164 2.00001 11.1675 2.00001 12.0065V14.0066C2.00001 17.778 2.00001 19.6637 3.17163 20.8353C4.34325 22.0069 6.22895 22.0069 10.0003 22.0069H14.0005C17.7719 22.0069 19.6576 22.0069 20.8292 20.8353C22.0008 19.6637 22.0008 17.778 22.0008 14.0066Z" fill="#00FFD5"/>
    <path d="M18.0006 17.0065C18.0006 17.5589 17.5528 18.0066 17.0005 18.0066C16.4482 18.0066 16.0005 17.5589 16.0005 17.0065C16.0005 16.4542 16.4482 16.0065 17.0005 16.0065C17.5528 16.0065 18.0006 16.4542 18.0006 17.0065Z" fill="#00FFD5"/>
    <path d="M18.0006 13.0064C18.0006 13.5587 17.5528 14.0064 17.0005 14.0064C16.4482 14.0064 16.0005 13.5587 16.0005 13.0064C16.0005 12.4541 16.4482 12.0063 17.0005 12.0063C17.5528 12.0063 18.0006 12.4541 18.0006 13.0064Z" fill="#00FFD5"/>
    <path d="M13.0006 17.0065C13.0006 17.5589 12.5528 18.0066 12.0005 18.0066C11.4482 18.0066 11.0005 17.5589 11.0005 17.0065C11.0005 16.4542 11.4482 16.0065 12.0005 16.0065C12.5528 16.0065 13.0006 16.4542 13.0006 17.0065Z" fill="#00FFD5"/>
    <path d="M13.0006 13.0064C13.0006 13.5587 12.5528 14.0064 12.0005 14.0064C11.4482 14.0064 11.0005 13.5587 11.0005 13.0064C11.0005 12.4541 11.4482 12.0063 12.0005 12.0063C12.5528 12.0063 13.0006 12.4541 13.0006 13.0064Z" fill="#00FFD5"/>
    <path d="M8.00008 17.0065C8.00008 17.5589 7.55235 18.0066 7.00004 18.0066C6.44773 18.0066 6 17.5589 6 17.0065C6 16.4542 6.44773 16.0065 7.00004 16.0065C7.55235 16.0065 8.00008 16.4542 8.00008 17.0065Z" fill="#00FFD5"/>
    <path d="M8.00008 13.0064C8.00008 13.5587 7.55235 14.0064 7.00004 14.0064C6.44773 14.0064 6 13.5587 6 13.0064C6 12.4541 6.44773 12.0063 7.00004 12.0063C7.55235 12.0063 8.00008 12.4541 8.00008 13.0064Z" fill="#00FFD5"/>
</svg>
