<svg width="24" height="24" viewBox="0 0 24 24" fill="none" xmlns="http://www.w3.org/2000/svg">
<path opacity="0.5" d="M12.0004 22.0008C7.28616 22.0008 4.92905 22.0008 3.46452 20.5363C2 19.0717 2 16.7146 2 12.0004C2 7.28616 2 4.92905 3.46452 3.46452C4.92905 2 7.28616 2 12.0004 2C16.7146 2 19.0717 2 20.5363 3.46452C22.0008 4.92905 22.0008 7.28616 22.0008 12.0004C22.0008 16.7146 22.0008 19.0717 20.5363 20.5363C19.0717 22.0008 16.7146 22.0008 12.0004 22.0008Z" fill="#5A6865"/>
<path d="M12.0002 5.24988C12.4145 5.24988 12.7503 5.58568 12.7503 5.99991V18.0004C12.7503 18.4146 12.4145 18.7504 12.0002 18.7504C11.586 18.7504 11.2502 18.4146 11.2502 18.0004V5.99991C11.2502 5.58568 11.586 5.24988 12.0002 5.24988Z" fill="#5A6865"/>
<path d="M7.00003 8.25C7.41426 8.25 7.75006 8.5858 7.75006 9.00003V18.0004C7.75006 18.4146 7.41426 18.7504 7.00003 18.7504C6.5858 18.7504 6.25 18.4146 6.25 18.0004V9.00003C6.25 8.5858 6.5858 8.25 7.00003 8.25Z" fill="#5A6865"/>
<path d="M17.0004 12.2502C17.4147 12.2502 17.7505 12.586 17.7505 13.0002V18.0004C17.7505 18.4146 17.4147 18.7504 17.0004 18.7504C16.5862 18.7504 16.2504 18.4146 16.2504 18.0004V13.0002C16.2504 12.586 16.5862 12.2502 17.0004 12.2502Z" fill="#5A6865"/>
</svg>
