<svg width="24" height="24" viewBox="0 0 24 24" fill="none" xmlns="http://www.w3.org/2000/svg">
<path opacity="0.5" d="M12.0004 22.0008C7.28616 22.0008 4.92905 22.0008 3.46452 20.5363C2 19.0717 2 16.7146 2 12.0004C2 7.28616 2 4.92905 3.46452 3.46452C4.92905 2 7.28616 2 12.0004 2C16.7146 2 19.0717 2 20.5363 3.46452C22.0008 4.92905 22.0008 7.28616 22.0008 12.0004C22.0008 16.7146 22.0008 19.0717 20.5363 20.5363C19.0717 22.0008 16.7146 22.0008 12.0004 22.0008Z" fill="#00FFD5"/>
<path d="M12.0002 5.24976C12.4145 5.24976 12.7503 5.58556 12.7503 5.99979V18.0003C12.7503 18.4145 12.4145 18.7503 12.0002 18.7503C11.586 18.7503 11.2502 18.4145 11.2502 18.0003V5.99979C11.2502 5.58556 11.586 5.24976 12.0002 5.24976Z" fill="#00FFD5"/>
<path d="M7.00003 8.24988C7.41426 8.24988 7.75006 8.58567 7.75006 8.9999V18.0003C7.75006 18.4145 7.41426 18.7503 7.00003 18.7503C6.5858 18.7503 6.25 18.4145 6.25 18.0003V8.9999C6.25 8.58567 6.5858 8.24988 7.00003 8.24988Z" fill="#00FFD5"/>
<path d="M17.0004 12.25C17.4147 12.25 17.7505 12.5858 17.7505 13.0001V18.0003C17.7505 18.4145 17.4147 18.7503 17.0004 18.7503C16.5862 18.7503 16.2504 18.4145 16.2504 18.0003V13.0001C16.2504 12.5858 16.5862 12.25 17.0004 12.25Z" fill="#00FFD5"/>
</svg>
