<svg width="24" height="25" viewBox="0 0 24 25" fill="none" xmlns="http://www.w3.org/2000/svg">
    <path opacity="0.5" d="M18.7502 9.00809V9.71222C18.7502 10.5572 18.9914 11.3834 19.4433 12.0865L20.5508 13.8094C21.5624 15.3832 20.7901 17.5223 19.0308 18.02C14.4282 19.3219 9.57349 19.3219 4.97093 18.02C3.21154 17.5223 2.43929 15.3832 3.45087 13.8094L4.55835 12.0865C5.01028 11.3834 5.25145 10.5572 5.25145 9.71222V9.00809C5.25145 5.14194 8.27325 2.00781 12.0008 2.00781C15.7284 2.00781 18.7502 5.14194 18.7502 9.00809Z" fill="#00FFD5"/>
    <path d="M7.24365 18.5537C7.89462 20.5589 9.77826 22.0086 12.0005 22.0086C14.2227 22.0086 16.1064 20.5589 16.7573 18.5537C13.6118 19.144 10.3892 19.144 7.24365 18.5537Z" fill="#00FFD5"/>
</svg>
