<svg width="24" height="25" viewBox="0 0 24 25" fill="none" xmlns="http://www.w3.org/2000/svg">
    <path d="M15.5003 7.50453C15.5003 9.43761 13.9332 11.0047 12.0001 11.0047C10.0671 11.0047 8.5 9.43761 8.5 7.50453C8.5 5.57146 10.0671 4.00439 12.0001 4.00439C13.9332 4.00439 15.5003 5.57146 15.5003 7.50453Z" fill="#00FFD5"/>
    <path opacity="0.5" d="M19.5007 7.50449C19.5007 8.88526 18.3814 10.0046 17.0006 10.0046C15.6198 10.0046 14.5005 8.88526 14.5005 7.50449C14.5005 6.12373 15.6198 5.00439 17.0006 5.00439C18.3814 5.00439 19.5007 6.12373 19.5007 7.50449Z" fill="#00FFD5"/>
    <path opacity="0.5" d="M4.50029 7.50449C4.50029 8.88526 5.61962 10.0046 7.00039 10.0046C8.38116 10.0046 9.50049 8.88526 9.50049 7.50449C9.50049 6.12373 8.38116 5.00439 7.00039 5.00439C5.61962 5.00439 4.50029 6.12373 4.50029 7.50449Z" fill="#00FFD5"/>
    <path d="M18.001 16.505C18.001 18.4381 15.3146 20.0052 12.0007 20.0052C8.68689 20.0052 6.00049 18.4381 6.00049 16.505C6.00049 14.5719 8.68689 13.0049 12.0007 13.0049C15.3146 13.0049 18.001 14.5719 18.001 16.505Z" fill="#00FFD5"/>
    <path opacity="0.5" d="M22.0008 16.505C22.0008 17.8857 20.2099 19.0051 18.0006 19.0051C15.7914 19.0051 14.0005 17.8857 14.0005 16.505C14.0005 15.1242 15.7914 14.0049 18.0006 14.0049C20.2099 14.0049 22.0008 15.1242 22.0008 16.505Z" fill="#00FFD5"/>
    <path opacity="0.5" d="M2.00017 16.505C2.00017 17.8857 3.7911 19.0051 6.00033 19.0051C8.20956 19.0051 10.0005 17.8857 10.0005 16.505C10.0005 15.1242 8.20956 14.0049 6.00033 14.0049C3.7911 14.0049 2.00017 15.1242 2.00017 16.505Z" fill="#00FFD5"/>
</svg>
